<svg width="132" height="131" viewBox="0 0 132 131" fill="none" xmlns="http://www.w3.org/2000/svg">
<rect x="1.85303" y="1.00002" width="122" height="122" rx="17" fill="black" stroke="white" stroke-width="2"/>
<rect x="9" y="8" width="122" height="122" rx="17" fill="white" stroke="black" stroke-width="2"/>
<path d="M20.9836 19.24C24.8236 19.144 28.6156 19.064 32.3596 19C36.1356 18.904 39.7196 18.856 43.1116 18.856C47.5916 18.856 51.5116 19.48 54.8716 20.728C58.2316 21.944 60.8556 23.848 62.7436 26.44C64.6316 29 65.5756 32.296 65.5756 36.328C65.5756 38.664 65.0316 40.856 63.9436 42.904C62.8876 44.952 61.4796 46.648 59.7196 47.992C57.9596 49.336 56.0076 50.136 53.8636 50.392V48.856C56.4556 48.984 58.8716 49.864 61.1116 51.496C63.3836 53.128 65.2076 55.24 66.5836 57.832C67.9596 60.392 68.6476 63.16 68.6476 66.136C68.6476 70.616 67.6556 74.296 65.6716 77.176C63.7196 80.024 60.9516 82.136 57.3676 83.512C53.7836 84.888 49.5436 85.576 44.6476 85.576C40.9356 85.576 37.0796 85.528 33.0796 85.432C29.1116 85.368 25.0796 85.288 20.9836 85.192L20.3116 84.52V19.912L20.9836 19.24ZM35.4316 74.824C36.9996 74.792 38.4876 74.776 39.8956 74.776C41.3036 74.744 42.5196 74.728 43.5436 74.728C46.1676 74.728 48.1676 74.248 49.5436 73.288C50.9516 72.296 51.9116 71.096 52.4236 69.688C52.9676 68.248 53.2396 66.856 53.2396 65.512C53.2396 64.104 52.9516 62.68 52.3756 61.24C51.8316 59.768 50.8396 58.536 49.3996 57.544C47.9916 56.552 46.0076 56.056 43.4476 56.056H29.6716V45.16H42.3436C44.5196 45.16 46.1996 44.776 47.3836 44.008C48.5676 43.208 49.3996 42.216 49.8796 41.032C50.3596 39.848 50.5996 38.632 50.5996 37.384C50.5996 36.104 50.3596 34.888 49.8796 33.736C49.3996 32.584 48.5516 31.64 47.3356 30.904C46.1516 30.136 44.4876 29.752 42.3436 29.752C41.5116 29.752 40.4556 29.752 39.1756 29.752C37.8956 29.72 36.6476 29.688 35.4316 29.656V74.824Z" fill="black"/>
<path d="M97.7845 104.32C97.7845 106.533 97.3645 108.4 96.5245 109.92C95.6845 111.44 94.4979 112.593 92.9645 113.38C91.4445 114.153 89.6312 114.54 87.5245 114.54C85.4312 114.54 83.6179 114.153 82.0845 113.38C80.5645 112.593 79.3845 111.44 78.5445 109.92C77.7045 108.4 77.2845 106.533 77.2845 104.32V86.74L77.5445 86.5H79.3245C80.2579 86.5 80.9312 86.74 81.3445 87.22C81.7712 87.6867 81.9845 88.4333 81.9845 89.46V104.32C81.9845 106.44 82.4445 108.047 83.3645 109.14C84.2845 110.22 85.6712 110.76 87.5245 110.76C89.4045 110.76 90.8045 110.22 91.7245 109.14C92.6445 108.047 93.1045 106.44 93.1045 104.32V86.68C93.4645 86.6133 93.8512 86.5667 94.2645 86.54C94.6779 86.5133 95.0512 86.5 95.3845 86.5C95.7179 86.5 96.1112 86.5133 96.5645 86.54C97.0179 86.5667 97.4245 86.6133 97.7845 86.68V104.32ZM104.561 86.68C104.908 86.6133 105.301 86.5667 105.741 86.54C106.181 86.5133 106.561 86.5 106.881 86.5C107.241 86.5 107.628 86.5133 108.041 86.54C108.468 86.5667 108.868 86.6133 109.241 86.68V114C108.868 114.067 108.468 114.113 108.041 114.14C107.628 114.167 107.241 114.18 106.881 114.18C106.561 114.18 106.181 114.167 105.741 114.14C105.301 114.113 104.908 114.067 104.561 114V86.68Z" fill="black"/>
<circle cx="113" cy="29" r="11" fill="#122B9D" stroke="black" stroke-width="2"/>
<path d="M34.8658 97.9833L45.7721 116.417C46.1091 116.987 46.055 117.596 45.723 118.095C45.3848 118.602 44.7441 119 43.9062 119H22.0938C21.2559 119 20.6152 118.602 20.277 118.095C19.945 117.596 19.891 116.987 20.2279 116.417L31.1342 97.9833C31.5048 97.3568 32.216 97 33 97C33.784 97 34.4952 97.3568 34.8658 97.9833Z" fill="#A40E4B" stroke="black" stroke-width="2"/>
</svg>
